grf
version=1
nRows=6
nColumns=37
inDegrees=no
endheader
time	ground_force_1_vx	ground_force_1_vy	ground_force_1_vz	ground_force_1_px	ground_force_1_py	ground_force_1_pz	ground_moment_1_mx	ground_moment_1_my	ground_moment_1_mz	ground_force_2_vx	ground_force_2_vy	ground_force_2_vz	ground_force_2_px	ground_force_2_py	ground_force_2_pz	ground_moment_2_mx	ground_moment_2_my	ground_moment_2_mz	ground_force_3_vx	ground_force_3_vy	ground_force_3_vz	ground_force_3_px	ground_force_3_py	ground_force_3_pz	ground_moment_3_mx	ground_moment_3_my	ground_moment_3_mz	ground_force_4_vx	ground_force_4_vy	ground_force_4_vz	ground_force_4_px	ground_force_4_py	ground_force_4_pz	ground_moment_4_mx	ground_moment_4_my	ground_moment_4_mz
      3.23000000	      0.00000000	     -0.00000000	      0.00000000	      0.00000000	      0.00000000	      0.00000000	      0.00000000	      0.00000000	      0.00000000	     10.97289276	     32.31686783	   -446.97732544	   -311.28413491	  -1127.66274816	      0.00000000	      0.00000000	      0.00000000	  11466.15564172	    -10.85337559	    -34.50649930	   -424.79687500	   -284.13578987	   -660.55158854	      0.00000000	      0.00000000	     -0.00000000	 -16366.25336018	      0.00000000	     -0.00000000	      0.00000000	      0.00000000	      0.00000000	      0.00000000	      0.00000000	      0.00000000	      0.00000000
      3.24000000	      0.00000000	     -0.00000000	      0.00000000	      0.00000000	      0.00000000	      0.00000000	      0.00000000	      0.00000000	      0.00000000	     11.36444569	     32.25775146	   -446.28204346	   -311.54074715	  -1127.32316920	      0.00000000	      0.00000000	      0.00000000	  11348.98979523	    -10.40629594	    -34.56079011	   -424.90313721	   -284.44512673	   -660.31633581	      0.00000000	      0.00000000	     -0.00000000	 -16491.68397765	      0.00000000	     -0.00000000	      0.00000000	      0.00000000	      0.00000000	      0.00000000	      0.00000000	      0.00000000	      0.00000000
      3.25000000	      0.00000000	     -0.00000000	      0.00000000	      0.00000000	      0.00000000	      0.00000000	      0.00000000	      0.00000000	      0.00000000	     11.86907864	     31.29292488	   -445.34375000	   -312.12684307	  -1127.63099081	      0.00000000	      0.00000000	      0.00000000	  11257.09938836	     -9.75818939	    -34.86028204	   -424.47827148	   -284.48260876	   -660.43752490	      0.00000000	      0.00000000	     -0.00000000	 -16416.68342354	      0.00000000	     -0.00000000	      0.00000000	      0.00000000	      0.00000000	      0.00000000	      0.00000000	      0.00000000	      0.00000000
      3.26000000	      0.00000000	     -0.00000000	      0.00000000	      0.00000000	      0.00000000	      0.00000000	      0.00000000	      0.00000000	      0.00000000	     13.14514256	     31.31156158	   -446.17242432	   -312.37761127	  -1128.14847959	      0.00000000	      0.00000000	      0.00000000	  11329.38847487	     -9.22592465	    -34.56893459	   -425.98193359	   -284.59747870	   -659.60489629	      0.00000000	      0.00000000	     -0.00000000	 -16397.56867475	      0.00000000	     -0.00000000	      0.00000000	      0.00000000	      0.00000000	      0.00000000	      0.00000000	      0.00000000	      0.00000000
      3.27000000	      0.00000000	     -0.00000000	      0.00000000	      0.00000000	      0.00000000	      0.00000000	      0.00000000	      0.00000000	      0.00000000	     14.15792274	     31.10651016	   -443.24084473	   -312.41783748	  -1127.31207462	      0.00000000	      0.00000000	      0.00000000	  11115.24318462	     -9.30993100	    -35.02802195	   -427.01245117	   -284.86915080	   -660.10352422	      0.00000000	      0.00000000	     -0.00000000	 -16425.45673386	      0.00000000	     -0.00000000	      0.00000000	      0.00000000	      0.00000000	      0.00000000	      0.00000000	      0.00000000	      0.00000000
      3.28000000	      0.00000000	     -0.00000000	      0.00000000	      0.00000000	      0.00000000	      0.00000000	      0.00000000	      0.00000000	      0.00000000	     14.01118374	     30.59288979	   -443.46951294	   -311.96280687	  -1128.20198995	      0.00000000	      0.00000000	      0.00000000	  11173.60211334	     -9.28843426	    -35.33370509	   -426.29425049	   -284.43915439	   -659.82253714	      0.00000000	      0.00000000	     -0.00000000	 -16482.60834413	      0.00000000	     -0.00000000	      0.00000000	      0.00000000	      0.00000000	      0.00000000	      0.00000000	      0.00000000	      0.00000000
